<?xml version="1.0" encoding="UTF-8" standalone="no"?>
<svg
   xmlns:dc="http://purl.org/dc/elements/1.1/"
   xmlns:cc="http://creativecommons.org/ns#"
   xmlns:rdf="http://www.w3.org/1999/02/22-rdf-syntax-ns#"
   xmlns:svg="http://www.w3.org/2000/svg"
   xmlns="http://www.w3.org/2000/svg"
   id="svg8"
   version="1.1"
   viewBox="0 0 210 297"
   height="297mm"
   width="210mm">
  <defs
     id="defs2" />
  <metadata
     id="metadata5">
    <rdf:RDF>
      <cc:Work
         rdf:about="">
        <dc:format>image/svg+xml</dc:format>
        <dc:type
           rdf:resource="http://purl.org/dc/dcmitype/StillImage" />
        <dc:title></dc:title>
      </cc:Work>
    </rdf:RDF>
  </metadata>
  <g
     id="layer1">
    <path
       id="path3691"
       d="m 93.994009,235.63325 c -0.02728,-0.13637 -0.116881,-0.28402 -0.199104,-0.32802 -0.245096,-0.13114 -1.960602,-0.38819 -3.79142,-0.56807 -2.110055,-0.20729 -2.444462,-0.26091 -4.085062,-0.65491 -1.309109,-0.31441 -1.956404,-0.44115 -3.548224,-0.69469 -0.468649,-0.0747 -1.435048,-0.31523 -2.147555,-0.53465 -0.712508,-0.21941 -1.615865,-0.45767 -2.007456,-0.52951 -1.090642,-0.20006 -1.622522,-0.34833 -2.470205,-0.68865 -0.427781,-0.17173 -1.30446,-0.42761 -1.948173,-0.5686 -0.849874,-0.18616 -1.348036,-0.34568 -1.819095,-0.58253 -0.36502,-0.18353 -1.119806,-0.45158 -1.725974,-0.61297 -0.732864,-0.1951 -1.289303,-0.40238 -1.74051,-0.64834 -0.372487,-0.20303 -0.964531,-0.43778 -1.35048,-0.53545 -0.377974,-0.0957 -1.073264,-0.36732 -1.545088,-0.60369 -0.471826,-0.23638 -1.207135,-0.54547 -1.634024,-0.68686 -0.426887,-0.1414 -1.015137,-0.40416 -1.307221,-0.58389 -0.292082,-0.17972 -0.869053,-0.43942 -1.282163,-0.57709 -0.413109,-0.13766 -0.982977,-0.40082 -1.266368,-0.58475 -0.283395,-0.18394 -0.846152,-0.46781 -1.250574,-0.63086 -0.404423,-0.16303 -0.955905,-0.44484 -1.225516,-0.62627 -0.269616,-0.18143 -0.793817,-0.45095 -1.164898,-0.59891 -0.371081,-0.14799 -0.812266,-0.37896 -0.980413,-0.51328 -0.168152,-0.13425 -0.673388,-0.42879 -1.122741,-0.65441 -0.449353,-0.22563 -0.951915,-0.51665 -1.116804,-0.64671 -0.164883,-0.13002 -0.587686,-0.36705 -0.939559,-0.52665 -0.351875,-0.15959 -0.841986,-0.44792 -1.089131,-0.64071 -0.247153,-0.19282 -0.651569,-0.4513 -0.898715,-0.5744 -0.247151,-0.12312 -0.651568,-0.37921 -0.898713,-0.5691 -0.247145,-0.1899 -0.718347,-0.48933 -1.047118,-0.66541 -0.328763,-0.17604 -0.768072,-0.46085 -0.976246,-0.63288 -0.208168,-0.17203 -0.545813,-0.40842 -0.750318,-0.52533 -0.204499,-0.1169 -0.555647,-0.3664 -0.780327,-0.55442 -0.224681,-0.18802 -0.665865,-0.49886 -0.980412,-0.69073 -0.314549,-0.19189 -0.737352,-0.48624 -0.939568,-0.65412 -0.202207,-0.1679 -0.571454,-0.43511 -0.820547,-0.59381 -0.249101,-0.15869 -0.502676,-0.34853 -0.563515,-0.42183 -0.06087,-0.0732 -0.455009,-0.39874 -0.875939,-0.72318 -3.025484,-2.33198 -4.547179,-3.61532 -7.091538,-5.98069 -2.331578,-2.16758 -6.672162,-6.64504 -8.000995,-8.25331 -0.29702,-0.35949 -0.824969,-0.99587 -1.173223,-1.41417 -0.348244,-0.41832 -0.853775,-1.04846 -1.123386,-1.40035 -0.650936,-0.84953 -1.23005,-1.57837 -1.655124,-2.08302 -0.191345,-0.22717 -0.448701,-0.55251 -0.571913,-0.72298 -0.123202,-0.17047 -0.389448,-0.53279 -0.591656,-0.80515 -0.202208,-0.27236 -0.551488,-0.77936 -0.776161,-1.12669 -0.224681,-0.34733 -0.541157,-0.79386 -0.703277,-0.99229 -0.162128,-0.19843 -0.433943,-0.58138 -0.604032,-0.85099 -0.170089,-0.26962 -0.426574,-0.63727 -0.56997,-0.81701 -0.143391,-0.17974 -0.398855,-0.58237 -0.567694,-0.89472 -0.168838,-0.31236 -0.465221,-0.77191 -0.658615,-1.02127 -0.193401,-0.24934 -0.433766,-0.61881 -0.534142,-0.82102 -0.100374,-0.20219 -0.373916,-0.64339 -0.607854,-0.9804 -0.233938,-0.33702 -0.541431,-0.8645 -0.683317,-1.17219 -0.141888,-0.30768 -0.368657,-0.69916 -0.503932,-0.86997 -0.135273,-0.17079 -0.414333,-0.65138 -0.620121,-1.06796 -0.205788,-0.41656 -0.495547,-0.9164 -0.643909,-1.11069 -0.148364,-0.19431 -0.390726,-0.65686 -0.538584,-1.02791 -0.147858,-0.37104 -0.428205,-0.92138 -0.622983,-1.22299 -0.194785,-0.3016 -0.462468,-0.82965 -0.59484,-1.17343 -0.132392,-0.3438 -0.391464,-0.85647 -0.575736,-1.13931 -0.184271,-0.28283 -0.463742,-0.87613 -0.621054,-1.31845 -0.15731,-0.44233 -0.431153,-1.04572 -0.608545,-1.34087 -0.177391,-0.29516 -0.446062,-0.9018 -0.5970446,-1.34806 C 9.7142046,172.80539 9.405435,172.07261 9.1790345,171.62324 8.9526279,171.17387 8.7066174,170.54887 8.6323433,170.23433 8.5580702,169.91976 8.2974324,169.25798 8.0531552,168.76369 7.7448818,168.13991 7.5457845,167.59411 7.402292,166.9795 7.2868678,166.48514 7.034799,165.7433 6.8316039,165.30001 6.599694,164.79408 6.3650848,164.07786 6.1849732,163.32596 6.0295032,162.67692 5.7550611,161.77825 5.575103,161.32887 5.3802181,160.84224 5.1610134,160.07147 5.0330076,159.42274 4.9148028,158.8237 4.6405755,157.7575 4.423608,157.0534 c -0.2169687,-0.70411 -0.4558291,-1.66625 -0.5308109,-2.13807 -0.2549308,-1.60416 -0.3796196,-2.24541 -0.6672674,-3.43145 -0.399264,-1.64627 -0.4959784,-2.24159 -0.6835947,-4.20761 -0.1669104,-1.74913 -0.4488892,-3.65165 -0.5765734,-3.89024 -0.038968,-0.0729 -0.1824567,-0.15471 -0.3188609,-0.18199 l -0.2480057,-0.0495 v -10.95206 -10.95205 l 0.2480057,-0.0495 c 0.1364008,-0.0273 0.2798883,-0.10912 0.3188609,-0.18199 0.1283128,-0.23975 0.4100063,-2.14464 0.5782808,-3.91047 0.1825567,-1.91578 0.2823812,-2.51977 0.7055819,-4.26907 0.1576264,-0.65158 0.39456,-1.84644 0.5265173,-2.65528 0.1557383,-0.95461 0.3829321,-1.94365 0.6474765,-2.81871 0.2241564,-0.74145 0.5017416,-1.82602 0.6168692,-2.41018 0.1232303,-0.62529 0.3424555,-1.39288 0.5330548,-1.86637 0.1780563,-0.44235 0.4525518,-1.3431 0.6099828,-2.00169 0.1876509,-0.78498 0.4107452,-1.464771 0.6477047,-1.973583 0.2151078,-0.461911 0.4502285,-1.156573 0.5807133,-1.715734 0.1586079,-0.679691 0.3285217,-1.147899 0.6143041,-1.692782 0.2172755,-0.414258 0.4895398,-1.089288 0.6050309,-1.500045 0.1154932,-0.410768 0.3868808,-1.101258 0.6030846,-1.534432 0.2162017,-0.433161 0.4948075,-1.100076 0.6191122,-1.482026 0.1243027,-0.381963 0.4026553,-1.006964 0.6185483,-1.388915 0.215901,-0.381963 0.491463,-0.988595 0.612355,-1.348083 0.120901,-0.359478 0.383147,-0.917683 0.582776,-1.240444 0.199627,-0.322759 0.470703,-0.866642 0.602391,-1.208625 0.131687,-0.341994 0.393223,-0.848272 0.581189,-1.125062 0.187974,-0.276789 0.462675,-0.811259 0.610461,-1.187697 0.147785,-0.376449 0.397618,-0.863891 0.55519,-1.083207 0.157566,-0.219326 0.45765,-0.740283 0.666859,-1.15768 0.209208,-0.417395 0.487446,-0.894655 0.61832,-1.060586 0.130868,-0.165923 0.363167,-0.572739 0.516232,-0.904028 0.153066,-0.331283 0.44396,-0.827368 0.646422,-1.102391 0.202471,-0.275034 0.465611,-0.695446 0.584764,-0.934254 0.11915,-0.238808 0.374965,-0.638206 0.568472,-0.887555 0.193508,-0.24935 0.489972,-0.708921 0.65881,-1.021266 0.168839,-0.312343 0.424303,-0.714966 0.567694,-0.894709 0.143396,-0.179742 0.399881,-0.547397 0.56997,-0.817015 0.170089,-0.26961 0.441904,-0.652562 0.604032,-0.850995 0.16212,-0.198431 0.478596,-0.644326 0.703277,-0.990872 0.399188,-0.615715 0.960446,-1.396256 1.488864,-2.070552 0.144835,-0.184821 0.491329,-0.630165 0.769983,-0.98965 0.278645,-0.359486 0.638098,-0.803445 0.798768,-0.986573 0.160676,-0.183128 0.466484,-0.569165 0.679576,-0.857862 0.213091,-0.288696 0.682309,-0.874177 1.042708,-1.301067 0.3604,-0.426889 0.878661,-1.0519 1.151691,-1.388919 1.65546,-2.043418 7.362526,-7.780649 9.996418,-10.04925 0.443456,-0.381958 1.015697,-0.87829 1.271649,-1.102971 0.817096,-0.717264 1.770118,-1.493493 2.218544,-1.806986 0.23936,-0.167334 0.582258,-0.439827 0.762,-0.605543 0.179745,-0.165709 0.602555,-0.509031 0.939569,-0.762935 0.337018,-0.253903 0.764323,-0.580813 0.949581,-0.726467 0.741833,-0.583273 1.460435,-1.102039 2.064439,-1.49035 0.349482,-0.224673 0.797774,-0.541158 0.996206,-0.703279 0.198434,-0.162128 0.581385,-0.433942 0.850995,-0.60403 0.269617,-0.170083 0.637273,-0.427057 0.817009,-0.571037 0.179749,-0.143977 0.595802,-0.405136 0.924565,-0.580338 0.328764,-0.1752 0.769404,-0.460391 0.979197,-0.633752 0.209786,-0.173359 0.60258,-0.426666 0.872862,-0.562895 0.270282,-0.136233 0.693637,-0.405506 0.94079,-0.598387 0.247145,-0.192878 0.737256,-0.481265 1.089131,-0.640856 0.351873,-0.159587 0.775685,-0.397803 0.941797,-0.529364 0.166105,-0.13156 0.643372,-0.406587 1.060578,-0.611166 0.417215,-0.204573 0.936282,-0.502406 1.153498,-0.661853 0.21721,-0.159448 0.707444,-0.415899 1.089414,-0.569891 0.381971,-0.153984 0.933412,-0.443549 1.225436,-0.643479 0.292028,-0.19993 0.727845,-0.427927 0.968488,-0.506671 0.550353,-0.180099 0.973882,-0.392316 1.486048,-0.744627 0.221014,-0.15203 0.663757,-0.354884 0.983879,-0.450791 0.616536,-0.184715 1.200639,-0.4528 1.68515,-0.773435 0.161839,-0.107093 0.724902,-0.339398 1.251265,-0.516232 0.526356,-0.17684 1.169386,-0.450529 1.428953,-0.608203 0.267024,-0.162208 0.860656,-0.398088 1.367241,-0.543266 0.499833,-0.143243 1.19386,-0.418202 1.571168,-0.622459 0.483152,-0.261549 0.983994,-0.443684 1.756581,-0.638783 0.626174,-0.158124 1.366811,-0.411612 1.760915,-0.602675 0.426323,-0.206688 1.036179,-0.410179 1.634023,-0.545221 0.890913,-0.201239 1.30317,-0.331571 2.617217,-0.827419 0.285761,-0.107833 1.00269,-0.291466 1.593177,-0.408077 0.590481,-0.116611 1.646076,-0.388133 2.345753,-0.603373 0.699682,-0.215242 1.655587,-0.452432 2.124236,-0.527075 1.61374,-0.257055 2.243656,-0.378405 3.18057,-0.612732 1.499505,-0.375031 2.554596,-0.554715 4.085053,-0.695693 1.709743,-0.157492 3.557874,-0.414836 3.976714,-0.553738 0.238583,-0.07913 0.31753,-0.156922 0.371402,-0.36601 l 0.06844,-0.265614 h 11.024992 11.02498 l 0.0684,0.265533 c 0.0539,0.209088 0.13284,0.286883 0.37141,0.36601 0.402,0.13331 2.28594,0.401673 3.60907,0.514088 1.60846,0.136656 2.64621,0.301931 4.08505,0.650581 1.30637,0.316537 1.94591,0.442258 3.54824,0.697494 0.46862,0.07464 1.42454,0.311833 2.12422,0.527075 0.69968,0.21524 1.75526,0.486758 2.34576,0.603373 0.59047,0.116608 1.30741,0.300244 1.59317,0.408076 1.31404,0.495849 1.72629,0.626181 2.61722,0.82742 0.59783,0.135048 1.20769,0.338533 1.63402,0.545221 0.39411,0.191063 1.13474,0.444551 1.76091,0.602675 0.77906,0.196732 1.26939,0.375622 1.75658,0.640865 0.37172,0.20237 0.96998,0.445882 1.32946,0.541136 0.87779,0.232588 1.06449,0.305654 1.61234,0.630971 0.2577,0.153025 0.89921,0.422898 1.42557,0.599739 0.52636,0.176834 1.08841,0.408474 1.24902,0.514746 0.47916,0.317102 0.91444,0.517798 1.61463,0.744461 0.36444,0.117965 0.89527,0.36551 1.17963,0.550078 0.28437,0.184573 0.85313,0.470831 1.26396,0.636136 0.4108,0.165298 0.92775,0.433298 1.14879,0.595545 0.22103,0.162243 0.72516,0.425324 1.12028,0.584625 0.39514,0.159299 0.89615,0.420088 1.11336,0.579537 0.21723,0.159446 0.73629,0.457279 1.15349,0.661852 0.41721,0.20458 0.89448,0.479598 1.06059,0.611166 0.16611,0.13156 0.58992,0.369777 0.94179,0.529365 0.35187,0.15959 0.84199,0.447977 1.08914,0.640854 0.24715,0.192883 0.67051,0.462159 0.94079,0.598389 0.27028,0.136232 0.66306,0.389535 0.87287,0.562894 0.20979,0.173361 0.65043,0.458552 0.97918,0.633753 0.32876,0.175201 0.74482,0.436232 0.92457,0.580067 0.17974,0.143827 0.58761,0.428413 0.90635,0.632402 0.31874,0.203981 0.70478,0.480304 0.85786,0.614041 0.15308,0.133734 0.53568,0.399826 0.85022,0.591314 0.31455,0.191485 0.73737,0.485516 0.93957,0.653395 0.20222,0.167884 0.57146,0.435097 0.82054,0.5938 0.24911,0.158708 0.50648,0.353626 0.57192,0.433162 0.0654,0.07953 0.39475,0.345888 0.73178,0.59191 0.33701,0.246018 0.74144,0.568648 0.89871,0.71695 0.15726,0.148308 0.53102,0.446351 0.8305,0.662324 0.76129,0.548943 1.89828,1.459796 2.43452,1.950292 0.24881,0.227589 0.56063,0.495842 0.6929,0.59613 0.4279,0.324376 3.71308,3.441453 5.25159,4.982847 1.81014,1.813524 4.38253,4.55058 5.11781,5.445404 0.2954,0.359485 0.82319,0.995857 1.17287,1.414166 0.34968,0.418309 0.85638,1.048461 1.126,1.400334 0.63523,0.829039 1.22074,1.566769 1.65325,2.083041 0.19032,0.227173 0.53151,0.679576 0.75821,1.005344 0.2267,0.32576 0.51655,0.711802 0.64413,0.85786 0.12762,0.146057 0.38862,0.522916 0.58012,0.837465 0.19148,0.314555 0.4576,0.697156 0.59133,0.85023 0.13368,0.153078 0.41004,0.539113 0.61405,0.857867 0.20397,0.318747 0.48809,0.726603 0.63132,0.906345 0.14326,0.179743 0.39858,0.582366 0.56742,0.894709 0.16884,0.312345 0.46532,0.771918 0.6588,1.021266 0.19352,0.249349 0.44933,0.648747 0.56848,0.887555 0.11915,0.238809 0.38229,0.65922 0.58476,0.934253 0.20246,0.275025 0.49336,0.771109 0.64642,1.102393 0.15306,0.331288 0.39014,0.743552 0.52683,0.916141 0.13667,0.172581 0.41689,0.654624 0.62268,1.0712 0.2058,0.416584 0.49556,0.916398 0.64392,1.110693 0.14836,0.194306 0.39073,0.656865 0.53858,1.027914 0.14786,0.371039 0.4282,0.921389 0.62298,1.222983 0.19478,0.301605 0.46248,0.829652 0.59485,1.173431 0.13242,0.343802 0.39147,0.85648 0.57572,1.139317 0.18429,0.282826 0.46376,0.876135 0.62106,1.318448 0.15731,0.442324 0.43116,1.045705 0.60855,1.340864 0.17738,0.295159 0.44607,0.901791 0.59705,1.348071 0.15098,0.44628 0.45973,1.179081 0.68615,1.628431 0.2264,0.449361 0.47241,1.074373 0.54669,1.388926 0.0743,0.314553 0.3349,0.976329 0.57917,1.470626 0.30828,0.623796 0.50738,1.169577 0.65088,1.7842 0.11535,0.494343 0.36749,1.236192 0.57069,1.679482 0.22897,0.499517 0.46979,1.231671 0.64933,1.974051 0.15696,0.64904 0.43234,1.55065 0.61196,2.00355 0.19229,0.48486 0.41544,1.27434 0.54267,1.91998 0.11888,0.60306 0.37591,1.60398 0.57123,2.22426 0.35982,1.14261 0.47565,1.66574 0.768,3.46849 0.0893,0.55078 0.30728,1.5986 0.48439,2.32849 0.42569,1.7545 0.46558,2.00083 0.665,4.10492 0.17576,1.85433 0.42573,3.53211 0.56502,3.7924 0.0437,0.0817 0.19111,0.17084 0.3275,0.19813 l 0.24802,0.0495 v 11.03374 11.03376 l -0.24802,0.0495 c -0.13638,0.0273 -0.27978,0.10913 -0.31861,0.18179 -0.13015,0.24371 -0.41621,2.15889 -0.58106,3.89043 -0.19452,2.04321 -0.23617,2.29848 -0.65982,4.04423 -0.17993,0.74143 -0.39861,1.78925 -0.48598,2.32847 -0.28807,1.77814 -0.40549,2.30766 -0.76444,3.44753 -0.19532,0.62026 -0.4522,1.6203 -0.57083,2.22228 -0.12917,0.6558 -0.3572,1.45817 -0.56869,2.00168 -0.19415,0.49894 -0.47212,1.41457 -0.61771,2.03476 -0.1747,0.74423 -0.38565,1.38315 -0.62042,1.87914 -0.20957,0.44274 -0.44184,1.12075 -0.56534,1.65021 -0.14453,0.6196 -0.34626,1.17785 -0.64955,1.79744 -0.24196,0.49429 -0.50319,1.16599 -0.58048,1.49264 -0.0774,0.32666 -0.32537,0.95168 -0.55129,1.38891 -0.22589,0.43727 -0.53409,1.16015 -0.68485,1.60642 -0.15077,0.44628 -0.41928,1.05292 -0.59666,1.34808 -0.17739,0.29515 -0.45124,0.89854 -0.60855,1.34087 -0.1573,0.44231 -0.43296,1.03057 -0.61254,1.30721 -0.17959,0.27666 -0.43809,0.7938 -0.5744,1.14921 -0.13638,0.35541 -0.40822,0.88851 -0.60421,1.18468 -0.19598,0.29615 -0.47693,0.84202 -0.6243,1.21307 -0.1474,0.37106 -0.39591,0.84215 -0.55226,1.04692 -0.15634,0.20475 -0.4136,0.65487 -0.57165,1.00024 -0.15807,0.34539 -0.42747,0.81563 -0.59868,1.04501 -0.17123,0.22936 -0.47207,0.74409 -0.6685,1.14382 -0.19647,0.39973 -0.49583,0.90737 -0.66528,1.12812 -0.16946,0.22073 -0.40138,0.58838 -0.51537,0.817 -0.11392,0.22863 -0.36263,0.61788 -0.55251,0.86504 -0.1899,0.24713 -0.48945,0.71953 -0.66569,1.04973 -0.17622,0.33023 -0.43454,0.73464 -0.57403,0.89873 -0.13949,0.16407 -0.4205,0.55911 -0.62446,0.87785 -0.20396,0.31876 -0.48026,0.7048 -0.61399,0.85788 -0.13369,0.15306 -0.39985,0.53567 -0.59133,0.85023 -0.1915,0.31454 -0.45834,0.69801 -0.59303,0.85216 -0.13468,0.15416 -0.37361,0.48504 -0.53097,0.73532 -0.15736,0.25027 -0.39003,0.56542 -0.51702,0.7003 -0.2369,0.25168 -1.02073,1.24288 -1.8412,2.32834 -0.25474,0.337 -0.56895,0.72566 -0.69823,0.86364 -0.12933,0.13792 -0.40888,0.47411 -0.62132,0.74697 -1.2025,1.54443 -3.58295,4.14222 -6.19794,6.76377 -1.57525,1.57922 -4.86714,4.70458 -5.30427,5.03596 -0.13227,0.10027 -0.44409,0.36856 -0.6929,0.59614 -0.47299,0.43264 -1.4407,1.2161 -2.52937,2.04781 -0.8601,0.65711 -1.47273,1.14223 -2.06344,1.63402 -0.26987,0.22468 -0.67897,0.53298 -0.90909,0.68512 -0.23011,0.15211 -0.58385,0.41387 -0.78607,0.58166 -0.2022,0.16777 -0.62502,0.46206 -0.93957,0.65395 -0.31454,0.19186 -0.75572,0.50445 -0.98041,0.69463 -0.22469,0.19016 -0.52504,0.40503 -0.66744,0.47748 -0.14241,0.0724 -0.49169,0.30961 -0.77616,0.52705 -0.28447,0.21744 -0.77458,0.53726 -1.08913,0.71073 -0.31456,0.17346 -0.77412,0.47036 -1.02128,0.65976 -0.24714,0.1894 -0.65156,0.44509 -0.89871,0.56822 -0.24714,0.12309 -0.65156,0.38158 -0.89871,0.5744 -0.24715,0.19278 -0.73727,0.48112 -1.08914,0.6407 -0.35187,0.1596 -0.77467,0.3966 -0.93956,0.52666 -0.16487,0.13002 -0.66744,0.42108 -1.1168,0.64671 -0.44935,0.22562 -0.95459,0.5201 -1.12273,0.65441 -0.16815,0.13427 -0.60934,0.36528 -0.98042,0.51326 -0.37108,0.14797 -0.89527,0.41748 -1.16489,0.59892 -0.26961,0.18143 -0.8211,0.46325 -1.22552,0.62628 -0.40442,0.16302 -0.96638,0.44639 -1.24879,0.6297 -0.28242,0.18332 -0.8491,0.44585 -1.25927,0.58341 -0.41018,0.13751 -0.9969,0.40186 -1.3038,0.58728 -0.30691,0.18544 -0.91675,0.45688 -1.35517,0.60314 -0.43845,0.14631 -1.16482,0.4513 -1.61416,0.6778 -0.44937,0.22649 -1.12628,0.49009 -1.50426,0.58577 -0.38582,0.0976 -0.9781,0.3325 -1.35048,0.53548 -0.4512,0.24597 -1.00763,0.45323 -1.74051,0.64835 -0.60615,0.16137 -1.36094,0.42944 -1.72596,0.61297 -0.47107,0.23683 -0.96925,0.39637 -1.81911,0.58251 -0.6437,0.14104 -1.52039,0.39688 -1.94817,0.5686 -0.84767,0.34032 -1.37957,0.4886 -2.47019,0.68866 -0.3916,0.0718 -1.29496,0.31011 -2.00746,0.52952 -0.71252,0.2194 -1.67892,0.45999 -2.14754,0.53465 -1.59184,0.25354 -2.23913,0.38028 -3.54824,0.69468 -1.64061,0.394 -1.97501,0.44762 -4.08505,0.65492 -1.83085,0.17988 -3.54635,0.43691 -3.79144,0.56807 -0.0823,0.044 -0.17182,0.19162 -0.19911,0.32802 l -0.0495,0.248 H 105.07742 94.043663 Z M 110.46964,199.0252 c 1.1908,-0.1303 3.04746,-0.32868 4.12592,-0.44087 2.26503,-0.23566 2.84424,-0.33772 4.41186,-0.77743 0.6291,-0.17647 1.60647,-0.39446 2.17192,-0.48447 1.07231,-0.17066 1.47993,-0.28331 2.77101,-0.76573 0.42688,-0.15949 1.20713,-0.38684 1.73387,-0.50525 0.6446,-0.14487 1.19393,-0.33176 1.68016,-0.57157 0.39733,-0.19597 1.02516,-0.43361 1.39514,-0.52808 0.83495,-0.21319 1.34882,-0.41349 1.8611,-0.7254 0.21829,-0.13286 0.76454,-0.35997 1.21389,-0.50456 0.44937,-0.14457 1.0482,-0.41079 1.33074,-0.59159 0.28254,-0.18083 0.8805,-0.46783 1.3288,-0.63783 0.44827,-0.17 0.99513,-0.44127 1.21519,-0.60281 0.22008,-0.16156 0.66994,-0.40304 0.99971,-0.53663 0.70718,-0.28649 1.00461,-0.4462 1.32757,-0.71282 0.13072,-0.108 0.55689,-0.35658 0.94686,-0.55245 0.38998,-0.19584 0.82249,-0.45156 0.96116,-0.56824 0.13863,-0.11676 0.55819,-0.3807 0.93227,-0.58671 0.37408,-0.20601 0.8308,-0.49705 1.01493,-0.64675 0.18414,-0.14971 0.57018,-0.40924 0.85787,-0.5767 0.28769,-0.16747 0.7069,-0.45834 0.93159,-0.64638 0.22467,-0.18804 0.61782,-0.47415 0.87363,-0.63581 0.25582,-0.16166 0.60509,-0.4184 0.77616,-0.57052 0.17107,-0.15211 0.53162,-0.42487 0.80124,-0.6061 0.26961,-0.18125 0.67403,-0.49217 0.89871,-0.69099 0.22468,-0.19882 0.59301,-0.4946 0.81848,-0.65732 0.22549,-0.16268 0.48282,-0.37745 0.57191,-0.47724 0.0891,-0.0998 0.47412,-0.44302 0.85565,-0.76271 0.92586,-0.77574 4.56374,-4.36942 5.63814,-5.5696 0.47182,-0.52706 1.0794,-1.20121 1.35015,-1.49812 0.27076,-0.29691 0.58147,-0.6685 0.69047,-0.82579 0.10902,-0.15727 0.36908,-0.48817 0.57795,-0.7353 0.20889,-0.24715 0.50187,-0.63319 0.65111,-0.85788 0.14924,-0.22467 0.3901,-0.54245 0.53528,-0.70618 0.14515,-0.1637 0.40113,-0.51297 0.56885,-0.77615 0.16773,-0.26317 0.44637,-0.64816 0.61922,-0.85553 0.17286,-0.20739 0.46765,-0.63019 0.65511,-0.93956 0.18746,-0.3094 0.45867,-0.70959 0.60271,-0.88933 0.14404,-0.17974 0.40298,-0.58416 0.57539,-0.89872 0.17243,-0.31455 0.44951,-0.75572 0.61573,-0.98042 0.16624,-0.22467 0.45393,-0.71245 0.63938,-1.08395 0.18542,-0.37152 0.45844,-0.83439 0.60671,-1.02865 0.14828,-0.19424 0.37507,-0.60722 0.50399,-0.91772 0.12889,-0.31048 0.40906,-0.83514 0.62252,-1.16589 0.21345,-0.33077 0.48805,-0.88224 0.61023,-1.22553 0.12211,-0.34327 0.3977,-0.91827 0.61231,-1.27775 0.21462,-0.35949 0.47143,-0.92935 0.57074,-1.26638 0.0993,-0.33701 0.3768,-1.0021 0.61665,-1.47796 0.24672,-0.48951 0.52813,-1.21097 0.64804,-1.6615 0.11661,-0.43795 0.3722,-1.12555 0.56808,-1.52801 0.24358,-0.50047 0.43894,-1.08569 0.61812,-1.85166 0.14409,-0.61597 0.40011,-1.46971 0.56893,-1.89718 0.38639,-0.97844 0.43507,-1.16419 0.68481,-2.61336 0.1122,-0.65156 0.33295,-1.62047 0.49032,-2.15312 0.33052,-1.11866 0.57719,-2.51831 0.70051,-3.97447 0.0475,-0.56168 0.14034,-1.42569 0.20623,-1.91996 0.44758,-3.35936 0.55044,-4.83246 0.55044,-7.88419 0,-3.05171 -0.10288,-4.52483 -0.55044,-7.88416 -0.0659,-0.49429 -0.15868,-1.35828 -0.20623,-1.91998 -0.12325,-1.45617 -0.36999,-2.85581 -0.70051,-3.97446 -0.15737,-0.53265 -0.37802,-1.50156 -0.49032,-2.15314 -0.24974,-1.44915 -0.29842,-1.6349 -0.68481,-2.61333 -0.16882,-0.4275 -0.42484,-1.28123 -0.56893,-1.89719 -0.17918,-0.76598 -0.37454,-1.35118 -0.61812,-1.85168 -0.19588,-0.40246 -0.45152,-1.09005 -0.56808,-1.52801 -0.11985,-0.45051 -0.40132,-1.17198 -0.64804,-1.66149 -0.23985,-0.47585 -0.51791,-1.14095 -0.61789,-1.47796 -0.0999,-0.33703 -0.34147,-0.8707 -0.53662,-1.18596 -0.1952,-0.31523 -0.46869,-0.88511 -0.60778,-1.26636 -0.13906,-0.38124 -0.41428,-0.93588 -0.61149,-1.23253 -0.19721,-0.29665 -0.47489,-0.81882 -0.61708,-1.16036 -0.14219,-0.34157 -0.38005,-0.78019 -0.52859,-0.974708 -0.14852,-0.194521 -0.42549,-0.665026 -0.61545,-1.045579 -0.18996,-0.38053 -0.48274,-0.875691 -0.6506,-1.100383 -0.16787,-0.22467 -0.45118,-0.665868 -0.62957,-0.980409 -0.17842,-0.314553 -0.48754,-0.800415 -0.68694,-1.079706 -0.19941,-0.27929 -0.50085,-0.720477 -0.66988,-0.980409 -0.16901,-0.259954 -0.49991,-0.733244 -0.73531,-1.051787 -0.63059,-0.85333 -0.95255,-1.290289 -1.4084,-1.911529 -0.92715,-1.263496 -2.10283,-2.655673 -3.68644,-4.365257 -1.27337,-1.374683 -4.39941,-4.441625 -5.27599,-5.176266 -0.37307,-0.312654 -0.75119,-0.650118 -0.84026,-0.749907 -0.0891,-0.0998 -0.34642,-0.314563 -0.57191,-0.477262 -0.22547,-0.162698 -0.5938,-0.458484 -0.81848,-0.657293 -0.22468,-0.198813 -0.6291,-0.510171 -0.89871,-0.691909 -0.26962,-0.181731 -0.67403,-0.482568 -0.89871,-0.668526 -0.22468,-0.185956 -0.61073,-0.464133 -0.85786,-0.618178 -0.24715,-0.15404 -0.59643,-0.412545 -0.77616,-0.574451 -0.17974,-0.161906 -0.5622,-0.430919 -0.84989,-0.597804 -0.28769,-0.166884 -0.67373,-0.426706 -0.85787,-0.577387 -0.18413,-0.150673 -0.58993,-0.406821 -0.90178,-0.56921 -0.31184,-0.16239 -0.75303,-0.43743 -0.9804,-0.611201 -0.22738,-0.173769 -0.71095,-0.464475 -1.07458,-0.646012 -0.36363,-0.181536 -0.76805,-0.418315 -0.89872,-0.526182 -0.3227,-0.266419 -0.62027,-0.426176 -1.32731,-0.712622 -0.32977,-0.133593 -0.77963,-0.375078 -0.99971,-0.536628 -0.22006,-0.161542 -0.76692,-0.432806 -1.21519,-0.602802 -0.4483,-0.169993 -1.04626,-0.457019 -1.3288,-0.63783 -0.28254,-0.180803 -0.88137,-0.447028 -1.33074,-0.591601 -0.44935,-0.144574 -0.9956,-0.37162 -1.21389,-0.504542 -0.51228,-0.311936 -1.02615,-0.512235 -1.8611,-0.725416 -0.36998,-0.09448 -0.99781,-0.332102 -1.39514,-0.528075 -0.48623,-0.239824 -1.03556,-0.4267 -1.68016,-0.571577 -0.52674,-0.118387 -1.30699,-0.34576 -1.73387,-0.505268 -1.29878,-0.48528 -1.70497,-0.596835 -2.81439,-0.772923 -0.58653,-0.09309 -1.56277,-0.31045 -2.16938,-0.483011 -1.45155,-0.412901 -2.12322,-0.530952 -4.37102,-0.768249 -1.03353,-0.109095 -2.90857,-0.314466 -4.16678,-0.456366 -2.16592,-0.244272 -2.4506,-0.257996 -5.35142,-0.257996 -2.90081,0 -3.1855,0.0137 -5.351434,0.257996 -1.258198,0.1419 -3.13324,0.347265 -4.166758,0.456366 -2.247817,0.237297 -2.919483,0.355348 -4.37101,0.768249 -0.606632,0.172561 -1.599307,0.392532 -2.205938,0.488823 -0.606633,0.09628 -1.397098,0.281097 -1.756576,0.410697 -0.359486,0.129597 -0.910974,0.327419 -1.225524,0.439612 -0.314547,0.11221 -1.002882,0.301494 -1.529616,0.42066 -0.640697,0.144944 -1.196856,0.334615 -1.680161,0.572987 -0.397337,0.195973 -1.025151,0.433606 -1.395135,0.528075 -0.831017,0.212179 -1.375451,0.423692 -1.828352,0.710332 -0.191365,0.121113 -0.75236,0.355583 -1.24665,0.521048 -0.504046,0.168733 -1.125154,0.447226 -1.414347,0.634176 -0.283598,0.18333 -0.844204,0.450859 -1.245784,0.594512 -0.40159,0.143646 -0.956537,0.420593 -1.233231,0.615426 -0.276684,0.194831 -0.7639,0.452451 -1.082693,0.572474 -0.318794,0.120025 -0.800221,0.373501 -1.069838,0.563274 -0.269611,0.189781 -0.765945,0.482641 -1.102965,0.650816 -0.337019,0.168174 -0.798802,0.447914 -1.026176,0.621652 -0.227387,0.17373 -0.668572,0.448736 -0.980418,0.611126 -0.311848,0.162389 -0.714061,0.415507 -0.893803,0.562479 -0.179737,0.146978 -0.584159,0.423213 -0.898715,0.61386 -0.314547,0.190645 -0.682203,0.449474 -0.817007,0.575176 -0.134807,0.125701 -0.473976,0.375024 -0.75371,0.554048 -0.27973,0.179023 -0.720919,0.493579 -0.980413,0.699012 -0.259492,0.205426 -0.765937,0.597064 -1.125422,0.87031 -1.093116,0.83086 -1.747063,1.35756 -2.199238,1.7713 -0.237108,0.216961 -0.85033,0.770419 -1.362717,1.229903 -0.512384,0.459489 -1.851093,1.764659 -2.97491,2.900395 -1.844985,1.864547 -2.53177,2.610887 -3.615506,3.92905 -0.19152,0.232945 -0.561728,0.680907 -0.822679,0.995459 -0.260951,0.314542 -0.629143,0.792493 -0.818204,1.062108 -0.18906,0.269617 -0.462251,0.640474 -0.607093,0.824117 -0.309612,0.39258 -1.01985,1.382901 -1.506045,2.099993 -0.189189,0.27904 -0.51153,0.748328 -0.716303,1.042873 -0.204768,0.294535 -0.5329,0.817308 -0.72917,1.161723 -0.196269,0.344405 -0.455587,0.743532 -0.576264,0.886956 -0.120677,0.143414 -0.386573,0.593582 -0.590885,1.000394 -0.204304,0.40679 -0.493128,0.898961 -0.641818,1.09371 -0.1487,0.194742 -0.386695,0.633524 -0.528884,0.975094 -0.142194,0.34154 -0.419607,0.86371 -0.61648,1.16036 -0.196873,0.29665 -0.468022,0.84484 -0.602546,1.2182 -0.134525,0.37337 -0.407257,0.94323 -0.606066,1.26636 -0.198809,0.32316 -0.459511,0.89561 -0.57935,1.27217 -0.119841,0.37655 -0.398417,1.03833 -0.619072,1.47061 -0.224102,0.43905 -0.495245,1.14072 -0.614263,1.58961 -0.117188,0.442 -0.373332,1.1329 -0.569212,1.53536 -0.24359,0.5005 -0.438938,1.0857 -0.618124,1.85168 -0.144083,0.61596 -0.401527,1.47327 -0.572093,1.90515 -0.374118,0.94728 -0.509131,1.46535 -0.6896,2.64622 -0.07554,0.4943 -0.279957,1.39593 -0.454258,2.00365 -0.373915,1.3037 -0.59869,2.56438 -0.727999,4.0831 -0.05165,0.60663 -0.144265,1.47062 -0.205795,1.91998 -0.769843,5.62206 -0.769795,9.95878 1.68e-4,15.76835 0.06549,0.49427 0.159816,1.37664 0.209577,1.96082 0.126167,1.48108 0.353499,2.75026 0.724056,4.04225 0.174294,0.60771 0.378713,1.50935 0.454251,2.00362 0.180475,1.18089 0.315489,1.69897 0.689605,2.64624 0.170561,0.43187 0.428005,1.28919 0.572095,1.90516 0.179179,0.76597 0.374532,1.35119 0.618125,1.85166 0.19588,0.40246 0.45202,1.09337 0.569211,1.53537 0.119023,0.44889 0.390154,1.15055 0.614256,1.5896 0.220655,0.43231 0.499242,1.09408 0.619079,1.47063 0.119828,0.37655 0.376523,0.94257 0.57042,1.25783 0.193899,0.31525 0.466351,0.88511 0.60545,1.26637 0.139098,0.38125 0.414272,0.93588 0.611473,1.23254 0.19721,0.29664 0.474903,0.81882 0.617092,1.16037 0.142189,0.34153 0.380049,0.78016 0.528586,0.97468 0.14853,0.19453 0.425485,0.66503 0.615452,1.04556 0.189976,0.38056 0.489919,0.88515 0.66655,1.12136 0.176632,0.23621 0.457865,0.67739 0.624971,0.98042 0.167101,0.30302 0.461756,0.77154 0.654779,1.04116 0.193032,0.26961 0.505317,0.71851 0.693967,0.99756 0.476776,0.70519 1.191267,1.70209 1.50507,2.09998 0.144836,0.18366 0.417563,0.5545 0.606052,0.82412 0.392821,0.56188 1.1293,1.47007 2.598192,3.20392 0.789061,0.93139 5.470749,5.61209 6.401602,6.40025 2.209287,1.8706 2.719031,2.28629 3.180685,2.59387 0.236954,0.15786 0.569984,0.411 0.740059,0.56252 0.170075,0.15153 0.564025,0.43883 0.875435,0.63843 0.311417,0.19962 0.705359,0.48685 0.875435,0.63831 0.170082,0.15148 0.544624,0.41202 0.832312,0.579 0.287696,0.167 0.673732,0.42613 0.857868,0.57584 0.184129,0.1497 0.640845,0.44074 1.014929,0.64675 0.374085,0.20601 0.793603,0.47002 0.932271,0.58671 0.138677,0.11675 0.571193,0.3724 0.961165,0.56824 0.389978,0.19587 0.816062,0.44301 0.946863,0.54923 0.375594,0.30498 0.605543,0.42974 1.22594,0.66516 0.318801,0.12099 0.806009,0.37936 1.082701,0.5742 0.276686,0.19484 0.83164,0.47176 1.233223,0.61544 0.401587,0.14365 0.962186,0.41117 1.24579,0.59451 0.289194,0.18695 0.910295,0.46544 1.414341,0.63417 0.494298,0.16547 1.055285,0.39994 1.246658,0.52105 0.452893,0.28666 0.997335,0.49816 1.828344,0.71033 0.369984,0.0945 0.997798,0.33211 1.39514,0.52808 0.486236,0.23981 1.035567,0.4267 1.680156,0.57157 0.526739,0.11845 1.306987,0.34576 1.733875,0.50525 1.291083,0.48242 1.698691,0.59507 2.770997,0.76573 0.565459,0.0899 1.542833,0.308 2.171927,0.48447 1.5685,0.43994 2.147747,0.54195 4.411865,0.77686 1.078455,0.11197 2.788053,0.29939 3.799107,0.41663 3.643885,0.42255 7.399305,0.43096 11.111365,0.0249 z"
       style="fill:#2429fe;stroke-width:0.08170123" />
  </g>
</svg>
