<?xml version="1.0" encoding="UTF-8" standalone="no"?>
<svg
   xmlns:dc="http://purl.org/dc/elements/1.1/"
   xmlns:cc="http://creativecommons.org/ns#"
   xmlns:rdf="http://www.w3.org/1999/02/22-rdf-syntax-ns#"
   xmlns:svg="http://www.w3.org/2000/svg"
   xmlns="http://www.w3.org/2000/svg"
   id="svg8"
   version="1.1"
   viewBox="0 0 210 297"
   height="297mm"
   width="210mm">
  <defs
     id="defs2" />
  <metadata
     id="metadata5">
    <rdf:RDF>
      <cc:Work
         rdf:about="">
        <dc:format>image/svg+xml</dc:format>
        <dc:type
           rdf:resource="http://purl.org/dc/dcmitype/StillImage" />
        <dc:title></dc:title>
      </cc:Work>
    </rdf:RDF>
  </metadata>
  <g
     id="layer1">
    <path
       id="path29"
       d="m 30.652785,159.20381 c -0.958608,-0.1113 -1.932819,-0.34841 -3.764418,-0.91619 -0.58956,-0.18276 -1.276745,-0.36996 -1.527072,-0.416 -0.487465,-0.0896 -1.415999,-0.48682 -1.888044,-0.80758 -0.158926,-0.10799 -0.570152,-0.44712 -0.913833,-0.75363 -0.869926,-0.77581 -3.924436,-3.88847 -4.228882,-4.30937 -0.138,-0.19079 -0.273003,-0.36498 -0.299991,-0.38709 -0.02699,-0.0221 -0.281323,-0.43326 -0.565175,-0.91369 -0.375986,-0.63639 -0.64492,-0.98547 -0.990682,-1.28596 -0.930989,-0.8091 -1.460408,-1.39469 -1.879121,-2.07856 -0.59516,-0.97205 -1.045554,-1.4402 -1.979879,-2.05793 -0.445633,-0.29464 -0.84641,-0.54965 -0.890615,-0.5667 -0.09719,-0.0375 -1.125468,-0.85371 -1.406519,-1.11648 -0.284734,-0.26622 -1.1114718,-0.71988 -1.5754538,-0.86452 -0.216517,-0.0675 -0.8699402,-0.20959 -1.4520474,-0.31578 -0.5821075,-0.10618 -1.1788752,-0.2547 -1.3261447,-0.33004 -0.7289834,-0.37294 -1.7854207,-1.44985 -2.4326389,-2.47978 -0.3253315,-0.5177 -0.4468265,-1.3994 -0.2777425,-2.01555 0.3301324,-1.20304 1.6358795,-2.8261 2.6837321,-3.33592 0.4304029,-0.20941 0.59453,-0.24015 1.5270722,-0.28598 1.2055512,-0.0593 3.485563,0.0685 4.417061,0.24756 1.385993,0.26639 1.988918,0.53502 3.057582,1.36231 0.95738,0.74114 1.480479,1.08093 1.969124,1.27907 0.19892,0.0807 0.429922,0.18252 0.513341,0.22635 1.025754,0.5389 1.238365,0.71355 2.036724,1.67314 0.275315,0.33092 0.899994,0.97704 1.38817,1.43583 0.898651,0.84457 1.398498,1.50456 2.046516,2.70222 0.447173,0.82646 0.960677,1.52105 1.693437,2.29062 0.357772,0.37574 1.008123,1.15334 1.445225,1.728 0.832421,1.09439 1.181771,1.46496 1.847426,1.95971 1.2349,0.91784 2.29487,1.25371 3.885574,1.23121 0.91521,-0.0129 1.911527,-0.15893 2.539372,-0.3721 0.955089,-0.32426 1.27703,-0.54781 2.496401,-1.73354 0.663072,-0.64478 1.33462,-1.29741 1.492333,-1.45029 0.393507,-0.38147 1.094404,-1.28195 1.561349,-2.00597 0.229591,-0.356 0.77264,-0.98123 1.326341,-1.52708 0.639536,-0.63047 1.125794,-1.20272 1.529649,-1.80017 0.325636,-0.48173 0.823259,-1.09658 1.105837,-1.36633 1.070494,-1.0219 1.351363,-1.30611 1.624528,-1.64383 0.333231,-0.41198 1.386712,-1.28095 1.681454,-1.38695 0.504784,-0.18155 1.480772,-0.81639 2.497913,-1.62479 0.202453,-0.16091 1.335177,-0.68267 1.702971,-0.78444 1.400267,-0.38744 4.176411,-0.55569 6.755187,-0.40939 1.920925,0.10899 2.572171,0.21714 3.528697,0.58601 0.914213,0.35256 1.232424,0.54805 2.480187,1.5237 0.154715,0.12097 0.483248,0.32598 0.730069,0.45556 0.87786,0.46087 1.415314,0.87766 2.620748,2.03236 1.184186,1.13433 1.849285,1.89558 2.455811,2.81082 0.377437,0.56954 0.824304,1.05366 1.213966,1.31515 0.170224,0.11423 0.441999,0.36236 0.603942,0.55139 0.324043,0.37824 0.975317,1.30351 0.975317,1.38564 0,0.19349 0.780688,1.1208 1.660216,1.97203 0.570932,0.55255 1.283472,1.28499 1.583422,1.62763 0.628767,0.71827 1.073919,1.04798 1.830589,1.35592 1.150252,0.46809 3.063115,0.62498 4.407297,0.36146 1.450962,-0.28445 2.79119,-1.17993 3.831068,-2.55977 0.342149,-0.45399 1.049073,-1.25207 1.570959,-1.77352 0.982273,-0.98145 1.293432,-1.38813 1.949622,-2.54811 0.542757,-0.95945 0.908734,-1.43256 1.928079,-2.49257 0.489398,-0.50893 1.130927,-1.23494 1.425608,-1.61338 0.294695,-0.37843 0.674457,-0.80526 0.843914,-0.9485 0.420422,-0.35539 1.324449,-0.93579 1.955746,-1.2556 0.489648,-0.24807 0.715787,-0.40545 2.116095,-1.47275 0.56759,-0.43261 0.814617,-0.55868 1.601647,-0.81736 1.489215,-0.48947 4.769575,-0.69398 7.775525,-0.48477 2.7603,0.19212 3.39451,0.40933 4.99764,1.71171 0.61702,0.50126 1.21656,0.9034 1.7566,1.17823 1.18759,0.60434 1.81838,1.11258 2.55466,2.05833 0.10216,0.13123 0.68147,0.74494 1.28733,1.36381 1.13189,1.15618 1.08657,1.09307 2.39081,3.32962 0.24981,0.42839 0.67106,0.96531 1.14614,1.46087 0.41316,0.43096 1.06062,1.19309 1.43882,1.69366 0.97962,1.29656 1.05197,1.37864 1.61025,1.82669 0.97186,0.77997 1.79116,1.14808 2.98752,1.34229 1.59527,0.25897 3.30981,0.0316 4.62514,-0.61326 0.37798,-0.18533 0.82258,-0.57123 2.05641,-1.78493 1.52614,-1.50126 2.14127,-2.20252 2.59202,-2.95502 0.30128,-0.50294 0.39126,-0.64003 0.57578,-0.87718 0.21907,-0.28156 0.82047,-0.86803 1.26137,-1.23004 0.20328,-0.16692 0.64386,-0.71688 0.998,-1.24578 0.50352,-0.752 0.91558,-1.22818 2.00172,-2.31325 1.40626,-1.40486 2.04076,-1.89665 3.04288,-2.35848 0.30397,-0.14009 0.81032,-0.44749 1.12521,-0.68312 2.23781,-1.67453 3.52369,-1.97268 8.08736,-1.87516 2.19272,0.0469 3.21109,0.15088 3.95448,0.40394 0.77463,0.26369 1.59995,0.70177 2.3967,1.27218 0.46319,0.33159 1.02299,0.69242 1.24401,0.80184 0.22103,0.10941 0.60078,0.29628 0.84392,0.41528 0.67384,0.3298 1.27833,0.81945 2.53649,2.05466 0.87669,0.86068 1.30135,1.35253 1.79197,2.0755 0.66939,0.9864 0.98409,1.35231 1.45835,1.6957 0.43426,0.31441 0.84537,0.76893 1.28562,1.42136 0.22121,0.32783 0.4022,0.61817 0.4022,0.64522 0,0.0456 0.22002,0.35379 0.60022,0.8406 0.087,0.11137 0.61142,0.65477 1.1654,1.20753 0.55398,0.55276 1.26857,1.27965 1.58798,1.61531 0.59795,0.62835 1.19736,1.01492 1.92714,1.24281 0.50725,0.15841 1.9381,0.35323 2.59577,0.35344 0.54058,0 1.64868,-0.16251 2.21024,-0.3245 0.86152,-0.2485 2.16251,-1.11769 2.71631,-1.81477 1.39233,-1.75251 1.77987,-2.21153 2.22666,-2.63727 0.6655,-0.63414 0.98597,-1.07385 1.72999,-2.37363 0.7416,-1.29558 0.71184,-1.25625 1.79385,-2.37099 0.47197,-0.48626 1.17222,-1.2502 1.55609,-1.69765 0.38388,-0.44746 0.83559,-0.92097 1.00379,-1.05224 0.32667,-0.25495 1.27987,-0.82669 1.37823,-0.82669 0.19267,0 1.2586,-0.65772 2.1139,-1.30435 1.24768,-0.94329 1.65181,-1.12285 3.30146,-1.46681 0.85898,-0.1791 3.0046,-0.30912 4.22427,-0.25598 1.00682,0.0439 1.09571,0.0614 1.56727,0.30988 0.57947,0.30529 1.56754,1.25816 2.06647,1.99287 0.48108,0.70841 0.65736,1.26809 0.65579,2.08207 -0.001,0.58815 -0.0325,0.73737 -0.2451,1.1654 -0.13409,0.26999 -0.3264,0.58705 -0.42736,0.70458 -0.10096,0.11753 -0.3221,0.38108 -0.49143,0.58566 -0.36938,0.4463 -1.32854,1.18327 -1.82527,1.40246 -0.19711,0.087 -0.61157,0.20024 -0.921,0.25169 -1.69149,0.28123 -2.42693,0.58844 -3.52796,1.47372 -0.82402,0.66255 -1.54685,1.17418 -2.26199,1.60108 -0.61579,0.36759 -1.08714,0.83638 -1.53352,1.5252 -0.19366,0.29885 -0.35211,0.5649 -0.35211,0.59124 0,0.1041 -1.04516,1.37888 -1.22955,1.4997 -0.51913,0.34016 -0.9746,0.90313 -1.86774,2.30864 -0.66364,1.04436 -0.99711,1.41016 -3.33392,3.65715 -2.14627,2.06378 -2.75738,2.45494 -4.57982,2.93151 -0.37574,0.0983 -1.02675,0.28678 -1.4467,0.41891 -2.71009,0.8528 -4.46313,1.04297 -6.52397,0.70775 -1.18843,-0.1933 -1.58872,-0.29489 -3.16091,-0.80219 -0.66307,-0.21394 -1.51189,-0.46521 -1.88625,-0.55836 -1.20631,-0.30014 -1.90018,-0.70049 -2.92175,-1.68574 -0.49415,-0.47659 -1.07259,-0.96739 -1.28545,-1.09067 -0.58264,-0.33744 -1.18727,-0.92848 -1.66371,-1.62632 -0.23503,-0.34424 -0.84789,-1.05991 -1.3619,-1.59037 -0.88591,-0.91424 -1.13495,-1.24208 -1.89197,-2.49059 -0.38923,-0.64194 -0.82844,-1.25009 -1.1845,-1.64011 -0.54087,-0.59243 -1.63996,-1.83954 -1.98345,-2.25053 -0.30482,-0.36472 -1.36998,-1.29434 -1.48307,-1.29434 -0.021,0 -0.27602,-0.15949 -0.56672,-0.35442 -1.07036,-0.71775 -1.7216,-0.94613 -2.83292,-0.99342 -1.34458,-0.0572 -2.05806,0.19344 -3.80428,1.33661 -0.70232,0.45978 -1.49924,1.21128 -2.79103,2.63198 -1.02974,1.1325 -1.285,1.47035 -1.90732,2.52444 -0.81477,1.38006 -0.95617,1.56917 -1.89199,2.53038 -0.47342,0.48625 -1.0343,1.11919 -1.2464,1.40652 -0.63001,0.85346 -1.24051,1.43683 -1.80795,1.7276 -0.53288,0.27307 -1.02369,0.65936 -1.7837,1.40387 -0.60507,0.59273 -2.01601,1.27283 -3.15921,1.52279 -0.22102,0.0483 -0.9082,0.23336 -1.52708,0.41119 -2.11846,0.60874 -3.01621,0.75047 -4.70178,0.74231 -1.68384,-0.008 -1.92033,-0.046 -4.3803,-0.70188 -0.8841,-0.2357 -1.75212,-0.45309 -1.92894,-0.48309 -0.45446,-0.0771 -1.29376,-0.42156 -1.77964,-0.73032 -0.62702,-0.39846 -2.45757,-2.06731 -4.36468,-3.97911 -0.55376,-0.55511 -1.0015,-1.09574 -1.29013,-1.55776 -1.11148,-1.77913 -1.3244,-2.0425 -2.17495,-2.69017 -0.29049,-0.22119 -0.93782,-1.07687 -1.40265,-1.85411 -0.38889,-0.65025 -0.9507,-1.21489 -1.70817,-1.7168 -0.3212,-0.21281 -0.62862,-0.43046 -0.68318,-0.48367 -0.0545,-0.0532 -0.18151,-0.15357 -0.28213,-0.22304 -0.10063,-0.0695 -0.4399,-0.35735 -0.75393,-0.63969 -1.25046,-1.12428 -2.03943,-1.47611 -3.28267,-1.4638 -1.20922,0.012 -1.98828,0.37068 -3.21144,1.47872 -0.82783,0.74989 -1.674455,1.42233 -2.012765,1.59863 -0.4333,0.22581 -0.908332,0.67707 -1.274587,1.21076 -0.183079,0.26678 -0.332871,0.50546 -0.332871,0.53038 0,0.025 -0.19732,0.34027 -0.438493,0.70074 -0.427311,0.63869 -0.641224,0.88244 -1.483355,1.69018 -0.224654,0.21548 -0.688874,0.82624 -1.031598,1.35724 -0.874111,1.3543 -1.364213,1.94437 -2.351132,2.83065 -0.287337,0.25804 -0.898006,0.8325 -1.357045,1.27659 -0.459032,0.44409 -1.12498,1.05269 -1.479876,1.35245 -0.690468,0.58319 -1.822676,1.19657 -2.507847,1.35862 -0.221027,0.0523 -0.890127,0.23726 -1.486895,0.41106 -2.743947,0.79916 -3.103733,0.86754 -4.863345,0.92434 -1.075465,0.0347 -1.547015,0.0147 -2.210243,-0.0938 -0.778925,-0.12748 -2.272512,-0.48089 -2.421545,-0.573 -0.08333,-0.0515 -1.447165,-0.4721 -2.31962,-0.71536 -1.419017,-0.39565 -1.921271,-0.70045 -3.134526,-1.90224 -0.464145,-0.45976 -1.009424,-0.91878 -1.211715,-1.02002 -0.43639,-0.21839 -1.17602,-0.91478 -1.532713,-1.44309 -0.40499,-0.59986 -1.365053,-1.77463 -1.950761,-2.38701 -0.523235,-0.54706 -1.355371,-1.69825 -1.611278,-2.22905 -0.524008,-1.08692 -3.438029,-4.21172 -4.730486,-5.07267 -1.458624,-0.97163 -2.624297,-1.28577 -3.968336,-1.06942 -0.894284,0.14395 -1.535982,0.43388 -2.727408,1.2323 -1.19024,0.79763 -1.548751,1.12165 -2.507325,2.26612 -0.427555,0.51047 -0.897403,1.05613 -1.04411,1.2126 -0.498246,0.53137 -1.274175,1.56831 -1.62621,2.17323 -0.546554,0.93917 -1.224334,1.78841 -1.870962,2.34426 -0.340718,0.29289 -0.810498,0.81519 -1.106563,1.23026 -0.634036,0.88892 -1.193867,1.46607 -1.795165,1.85072 -0.25287,0.16175 -0.846484,0.68061 -1.319146,1.15303 -0.990852,0.99033 -1.590542,1.3409 -2.774333,1.62182 -0.391901,0.093 -1.30549,0.36427 -2.030187,0.60282 -1.3935,0.45871 -1.964893,0.59599 -3.319437,0.7975 -0.98186,0.14606 -1.633038,0.14578 -2.899347,-0.001 z m 47.339382,-38.37387 c -2.409285,-0.43767 -3.74158,-0.71776 -4.169033,-0.87647 -0.63169,-0.23454 -1.435,-0.73883 -1.939275,-1.21741 -0.460219,-0.43677 -0.903241,-0.79846 -2.344805,-1.91435 -0.868054,-0.67196 -0.891232,-0.69827 -2.415238,-2.7417 -0.247262,-0.33153 -0.706952,-0.86985 -1.021529,-1.19626 -0.620752,-0.6441 -1.312087,-1.58234 -1.635479,-2.21957 -0.341396,-0.67271 -0.993401,-1.53451 -1.439075,-1.90212 -0.566938,-0.46763 -1.530578,-1.42418 -2.149919,-2.1341 -1.17762,-1.34983 -2.22097,-1.85506 -3.983417,-1.92894 -2.681291,-0.1124 -4.048244,0.52818 -5.993255,2.80853 -0.274298,0.32159 -0.842911,0.92831 -1.263583,1.34825 -0.865057,0.86358 -1.253777,1.3528 -1.628461,2.0495 -0.380739,0.70797 -1.232818,1.9729 -1.515924,2.25043 -0.559011,0.54798 -1.74386,1.92095 -2.193975,2.54231 -0.531779,0.7341 -1.093163,1.20137 -2.112963,1.75873 -0.499386,0.27293 -0.716004,0.44189 -1.519613,1.18529 -0.865247,0.80042 -1.908292,1.33647 -3.073401,1.5795 -2.059305,0.42955 -4.532671,0.77048 -5.589616,0.77048 -0.894094,0 -2.341632,-0.18257 -4.204037,-0.53024 -2.591545,-0.48379 -3.292231,-0.78053 -4.489821,-1.90142 -0.138685,-0.1298 -0.451078,-0.38412 -0.694204,-0.56516 -0.243126,-0.18103 -0.635575,-0.47412 -0.872103,-0.65131 -0.236528,-0.17719 -0.814349,-0.758 -1.284041,-1.2907 -0.469699,-0.5327 -0.94527,-1.03809 -1.056844,-1.12309 -0.501712,-0.38225 -1.155365,-1.1373 -1.716126,-1.98233 -0.402221,-0.60611 -0.904414,-1.21718 -1.480425,-1.80137 -0.537672,-0.54531 -1.075235,-1.1921 -1.40279,-1.68782 -0.819205,-1.2398 -1.34958,-1.80864 -2.39687,-2.57072 -0.242081,-0.17616 -0.476316,-0.34863 -0.520522,-0.38326 -0.156891,-0.12292 -0.485091,-0.39535 -0.68429,-0.56802 -0.826175,-0.71614 -1.5590778,-1.05963 -2.6998568,-1.26535 -0.4744522,-0.0856 -1.1066912,-0.15556 -1.4049733,-0.15556 -0.6180942,0 -1.0877455,-0.16809 -1.6330997,-0.5845 -0.3044664,-0.23247 -0.5318736,-0.47197 -1.1731924,-1.23554 -0.2533581,-0.30165 -0.7402466,-1.09722 -0.9766183,-1.59579 -0.3130714,-0.66034 -0.3250602,-1.534401 -0.029633,-2.158916 0.4276159,-0.903906 1.9387185,-2.352617 2.8953058,-2.775757 0.7742129,-0.342474 2.8026918,-0.36475 4.5007526,-0.04943 2.969903,0.551498 3.200538,0.61073 4.076032,1.046768 0.581001,0.289365 0.968793,0.560483 1.509854,1.055583 0.636952,0.582839 0.795804,0.693648 1.507468,1.051528 0.777542,0.391012 1.491682,1.016894 2.042407,1.790024 0.271375,0.38096 0.796434,0.90964 1.539596,1.55019 0.490435,0.42272 0.961375,1.05261 1.49845,2.00419 0.352903,0.62527 0.964805,1.46187 1.758927,2.40483 0.236589,0.28093 0.490489,0.58311 0.564219,0.67152 0.07374,0.0884 0.354537,0.45009 0.624014,0.80372 0.973526,1.27761 2.574632,2.68159 3.622878,3.17686 1.11133,0.52508 2.865795,0.69675 4.09904,0.40108 1.147086,-0.27501 1.451979,-0.49472 3.103102,-2.23618 0.345763,-0.36469 0.912538,-0.86198 1.259494,-1.1051 0.699676,-0.49028 0.960229,-0.75867 1.411287,-1.45374 0.168012,-0.25891 0.462402,-0.71153 0.654216,-1.00583 0.191807,-0.2943 0.550691,-0.72831 0.797526,-0.96446 0.246834,-0.23617 0.599744,-0.57517 0.784248,-0.75335 0.184504,-0.17817 0.584352,-0.70261 0.88854,-1.1654 1.194383,-1.8171 1.832291,-2.47135 4.229276,-4.337638 0.369034,-0.287331 0.962181,-0.768835 1.318095,-1.070013 1.262593,-1.068392 2.103334,-1.32314 6.017808,-1.823421 0.91146,-0.116484 3.48749,-0.09719 4.515135,0.03384 2.147268,0.273749 2.924613,0.391372 3.375644,0.510792 0.831953,0.22028 1.577373,0.635961 2.386304,1.330708 0.420381,0.36104 1.237226,1.029781 1.815224,1.48608 1.642807,1.296922 2.696398,2.372642 3.55441,3.629082 0.64258,0.94096 1.041946,1.4254 1.413551,1.71468 0.478297,0.37232 0.87647,0.84529 1.334865,1.58562 0.924771,1.49355 0.96503,1.54154 1.976692,2.35548 0.543286,0.43711 1.152029,0.99849 1.352766,1.2475 1.398437,1.73479 2.285255,2.18076 4.336422,2.18076 1.181838,0 2.043336,-0.14122 2.806977,-0.46014 1.018511,-0.42536 2.141409,-1.32262 3.068336,-2.45176 1.043276,-1.27087 1.635981,-1.97082 1.992038,-2.35249 0.574064,-0.61535 1.166723,-1.43751 1.736387,-2.40878 0.420258,-0.71654 0.713929,-1.08541 1.567737,-1.96913 0.577829,-0.59809 1.239484,-1.34784 1.470336,-1.66613 0.385044,-0.53087 1.290273,-1.390418 1.464307,-1.390418 0.288171,0 1.271042,-0.60561 2.017052,-1.242819 1.393771,-1.190511 2.303821,-1.580079 4.405932,-1.886078 2.19235,-0.319134 2.71938,-0.367306 4.01862,-0.367306 1.40264,0 2.43869,0.09737 4.34012,0.407911 1.38668,0.226464 1.69855,0.317696 2.53722,0.742192 0.51465,0.260492 1.35599,0.870211 1.56177,1.131822 0.0221,0.02807 0.22126,0.200283 0.44254,0.382638 0.41187,0.339388 0.76495,0.54414 1.41059,0.818011 0.44048,0.186836 1.2633,0.970687 1.82823,1.741637 0.22675,0.30944 0.73336,0.85838 1.12579,1.21988 0.77127,0.71046 1.58878,1.85612 2.31397,3.24279 0.11941,0.22835 0.93586,1.22241 1.46853,1.78804 0.19331,0.20527 0.64091,0.74546 0.99467,1.20043 0.35376,0.45498 0.7883,1.00095 0.96565,1.21328 0.46702,0.55913 1.56206,1.38447 2.27222,1.71258 1.18392,0.54701 3.18574,0.75444 4.48222,0.46446 1.04821,-0.23445 1.51086,-0.5456 2.77198,-1.86425 0.7019,-0.73393 1.33728,-1.3171 1.67825,-1.54037 0.3018,-0.19761 0.65125,-0.46887 0.77655,-0.60279 0.23143,-0.24733 0.8572,-1.12413 0.8572,-1.20106 0,-0.19554 0.90593,-1.3652 1.56161,-2.01622 0.71688,-0.71178 1.14607,-1.26805 2.12893,-2.7593 0.34216,-0.51913 1.61987,-1.68859 2.8098,-2.571739 0.63557,-0.471706 1.41318,-1.070773 1.72801,-1.331258 1.43058,-1.183594 2.1629,-1.459302 4.87236,-1.834365 2.64416,-0.366025 6.58476,-0.187712 8.72041,0.394599 1.068,0.291203 2.01138,0.738897 2.46543,1.170005 0.27344,0.259631 0.94162,0.773019 1.23171,0.946362 0.69164,0.413308 1.88597,1.346226 2.65229,2.071756 0.83178,0.78752 1.42754,1.50926 2.1843,2.64617 0.24206,0.36364 0.6272,0.83382 0.85591,1.04484 1.12544,1.03846 1.44767,1.43157 2.12622,2.59391 0.33761,0.57831 0.73415,1.00442 1.42411,1.53031 0.57176,0.43579 1.20542,1.04365 1.9294,1.8508 0.75837,0.8455 1.4314,1.26792 2.3462,1.47258 1.2482,0.27923 3.20723,0.0709 4.32029,-0.45954 1.07133,-0.5105 2.56582,-1.81341 3.42744,-2.98806 0.19472,-0.26546 0.64338,-0.83692 0.99702,-1.26989 1.34922,-1.65192 1.58383,-1.96868 2.06522,-2.78849 0.67106,-1.14281 1.25732,-1.8593 1.90949,-2.33365 0.52619,-0.38271 0.82909,-0.7076 1.16913,-1.25397 0.39069,-0.62775 1.29976,-1.43702 1.86261,-1.658107 0.20652,-0.08112 0.54612,-0.263184 0.75465,-0.404574 0.33978,-0.230391 0.58515,-0.429128 1.40136,-1.13507 0.30516,-0.263929 1.35346,-0.812769 1.93376,-1.012422 0.44846,-0.154294 1.82888,-0.431989 3.45119,-0.694264 1.24186,-0.200772 3.37812,-0.197422 3.93637,0.0061 0.84658,0.308752 2.03288,1.312515 2.6723,2.261114 0.35234,0.522699 0.58525,1.176298 0.58371,1.638023 -0.003,0.71924 -0.42425,1.70302 -1.18167,2.75564 -0.91796,1.27575 -1.59838,1.70281 -2.83599,1.77998 -1.29255,0.0806 -2.14485,0.28791 -2.9336,0.71354 -0.37973,0.20492 -0.41549,0.23165 -0.95271,0.71229 -0.22749,0.20352 -0.79338,0.65197 -1.25753,0.99653 -1.19463,0.88685 -1.62683,1.35331 -2.53174,2.73241 -0.29938,0.45626 -0.81732,1.06464 -1.40272,1.64764 -0.60716,0.60469 -1.0659,1.14661 -1.32666,1.56726 -0.57687,0.93058 -1.12176,1.5995 -1.57234,1.93026 -0.21692,0.15923 -0.68151,0.62193 -1.03241,1.0282 -0.74811,0.86614 -1.28515,1.3832 -2.06013,1.98348 -0.30943,0.23968 -0.78146,0.64597 -1.04893,0.90287 -0.56264,0.54035 -0.66327,0.61542 -1.24964,0.93211 -0.58272,0.31473 -0.95964,0.4146 -3.44806,0.9136 l -2.12987,0.4271 -1.72801,-6.8e-4 c -1.55855,-6.8e-4 -1.83834,-0.0227 -2.85322,-0.2227 -0.61887,-0.12195 -1.43264,-0.27678 -1.80838,-0.34406 -2.1722,-0.38896 -3.13626,-0.82414 -4.34011,-1.95912 -0.53677,-0.50606 -1.0717,-0.8859 -1.91784,-1.36179 -0.63571,-0.35755 -1.10875,-0.83154 -1.98312,-1.98712 -0.39626,-0.52369 -1.01288,-1.26159 -1.37028,-1.63978 -0.65333,-0.6913 -1.08498,-1.29521 -1.72292,-2.41045 -0.57829,-1.01095 -0.97687,-1.54412 -1.55611,-2.08147 -0.17165,-0.15924 -0.76125,-0.79587 -1.31025,-1.41474 -1.43594,-1.61873 -2.19335,-2.20713 -3.36881,-2.61712 -1.031,-0.3596 -3.20539,-0.34208 -4.23372,0.0341 -0.49559,0.1813 -1.13083,0.50931 -1.41139,0.72878 -0.40793,0.31909 -3.91474,3.89591 -4.08664,4.16821 -0.11723,0.18569 -0.42475,0.73019 -0.68339,1.20999 -0.56938,1.05625 -1.04405,1.69847 -1.93214,2.61414 -0.36995,0.38146 -0.9232,1.01906 -1.22945,1.41691 -0.91122,1.1838 -1.43334,1.6219 -2.81119,2.35887 -0.26523,0.14187 -0.78966,0.52975 -1.1654,0.86196 -1.48132,1.30972 -2.05568,1.57494 -4.15602,1.91916 -0.69802,0.1144 -1.61272,0.27056 -2.03266,0.34704 -0.59564,0.10847 -1.19653,0.13792 -2.73267,0.13398 -1.79977,-0.005 -2.0728,-0.0243 -3.17471,-0.22901 -0.66307,-0.12318 -1.49493,-0.27167 -1.84856,-0.32998 -1.45334,-0.23961 -2.4019,-0.7073 -3.47703,-1.71435 -0.23258,-0.21786 -0.66918,-0.56285 -0.97022,-0.76667 -0.49426,-0.33463 -1.41429,-1.18582 -2.3181,-2.14465 -0.18456,-0.19579 -0.58253,-0.5917 -0.88439,-0.87981 -0.46342,-0.4423 -1.54608,-1.88289 -1.55597,-2.07039 -0.007,-0.13035 -0.70912,-0.90983 -1.12215,-1.24558 -0.59006,-0.47966 -0.86656,-0.79556 -1.39716,-1.59627 -1.01833,-1.5367 -1.18364,-1.73149 -2.19043,-2.58092 -0.39312,-0.33167 -1.00356,-0.88019 -1.35653,-1.21892 -0.81586,-0.78293 -1.61498,-1.19817 -2.64152,-1.37255 -0.89083,-0.15134 -1.14209,-0.15135 -2.00931,-1.7e-4 -0.94748,0.16523 -1.73004,0.55782 -2.38694,1.19747 -0.43249,0.42113 -1.293385,1.19108 -2.170805,1.94149 -0.16244,0.13893 -0.741706,0.77275 -1.040931,1.13897 -0.04455,0.0545 -0.159767,0.23536 -0.256043,0.40186 -0.60003,1.03773 -1.312332,1.88385 -1.876836,2.22944 -0.322727,0.19757 -0.748404,0.72676 -1.424122,1.77042 -0.365177,0.56404 -0.791803,1.09418 -1.178475,1.46441 -0.729885,0.69887 -0.568559,0.53734 -1.512534,1.51448 -0.799485,0.8276 -1.150442,1.15052 -1.786017,1.64336 -0.19892,0.15424 -0.641705,0.54098 -0.983942,0.85941 -0.34225,0.31843 -0.781448,0.67224 -0.975994,0.78626 -0.455662,0.26703 -1.315593,0.60393 -1.541543,0.60393 -0.09666,0 -0.985311,0.16054 -1.974786,0.35675 -2.273842,0.4509 -2.90878,0.52928 -4.206505,0.51926 -0.771032,-0.006 -1.375273,-0.0677 -2.292727,-0.23436 z M 30.773344,82.921397 c -3.375799,-0.28825 -3.95813,-0.394992 -4.98309,-0.913412 C 25.436618,81.829117 24.785596,81.393704 24.34355,81.040403 23.475685,80.346771 22.909947,79.9901 22.382346,79.803951 22.029741,79.679545 21.240075,79.109099 20.967906,78.782172 20.879496,78.675977 20.627223,78.355457 20.407302,78.069908 19.918575,77.435346 19.967487,77.484657 19.272978,76.926469 18.634629,76.413414 18.264163,75.963874 17.365452,74.611755 17.025596,74.10044 16.684424,73.612031 16.60729,73.526401 15.764081,72.590295 15.285336,71.995463 14.617565,71.054175 13.438859,69.392672 12.217136,68.213604 11.001725,67.56456 10.447833,67.268778 9.7487472,67.071498 8.7914822,66.940835 7.3323355,66.74167 6.4567671,66.440813 5.799791,65.912852 5.5080526,65.678403 4.5051173,64.554412 3.8561767,63.734633 3.6835327,63.516546 3.4398647,63.136195 3.3146808,62.889409 3.1211718,62.507924 3.0870634,62.344384 3.0870159,61.797726 3.0869549,61.220988 3.1138009,61.107377 3.3472024,60.694944 3.710616,60.05288 4.3972453,59.307103 5.2726709,58.603599 6.7970781,57.378578 7.642647,57.186173 9.6088692,57.61692 c 0.9256928,0.202796 1.1608368,0.272474 2.8007448,0.829926 0.50911,0.173061 1.304798,0.395098 1.76819,0.493416 1.211234,0.256985 1.968392,0.648378 2.816192,1.45577 0.373253,0.35546 0.859477,0.783782 1.080503,0.951826 0.221026,0.168044 0.763539,0.69596 1.205585,1.173146 0.442053,0.477186 1.237741,1.305348 1.768197,1.840361 0.671284,0.677051 1.086627,1.175624 1.366329,1.64014 0.776172,1.289023 0.700225,1.191573 2.055684,2.637765 0.295108,0.314871 0.692176,0.803134 0.882355,1.085028 0.591431,0.876635 1.194912,1.56074 1.751279,1.985236 3.042161,2.321133 3.383306,2.506903 4.714258,2.567173 1.76122,0.07975 2.609942,-0.316776 4.420486,-2.06528 0.353642,-0.341521 0.99334,-0.898187 1.421566,-1.237037 0.714669,-0.565512 1.32942,-1.238224 1.592115,-1.742211 0.388158,-0.744694 0.987339,-1.560537 1.682296,-2.290615 0.619206,-0.650495 1.185513,-1.395561 1.649407,-2.170057 0.211818,-0.353638 0.408718,-0.661063 0.437557,-0.683166 0.02882,-0.0221 0.121285,-0.148133 0.205437,-0.280069 0.254131,-0.398432 0.689484,-0.834197 1.450732,-1.452116 0.39784,-0.322936 1.121195,-0.972301 1.607446,-1.443033 1.373273,-1.329432 1.931511,-1.635749 4.02569,-2.208966 0.659187,-0.180432 1.469779,-0.415071 1.801316,-0.521421 0.331536,-0.106348 1.000636,-0.294161 1.486894,-0.417361 0.81696,-0.20699 1.003098,-0.224058 2.451354,-0.224787 1.714634,-8.81e-4 2.104114,0.06496 4.219559,0.71304 0.486251,0.148968 1.35103,0.403261 1.921725,0.565096 0.570695,0.161834 1.203632,0.369441 1.406519,0.461346 0.64157,0.290622 1.39251,0.8267 2.056708,1.468237 0.353635,0.341571 1.14933,1.03393 1.768195,1.538575 0.899886,0.733796 1.226621,1.058345 1.631602,1.620707 1.252103,1.738678 1.48067,2.032823 2.129346,2.740333 0.739846,0.806944 1.197556,1.447934 1.754777,2.45745 0.381112,0.690447 1.010442,1.379803 1.838353,2.013685 0.287331,0.219993 0.866014,0.731847 1.285961,1.137454 0.956132,0.923483 1.138643,1.072732 1.692738,1.38422 0.816939,0.45925 1.315105,0.591745 2.24551,0.597233 1.16749,0.0069 2.096228,-0.317912 3.038243,-1.062533 0.229794,-0.181635 0.824676,-0.622757 1.321974,-0.980269 0.497304,-0.357513 1.007119,-0.74547 1.13294,-0.862126 0.232968,-0.216016 1.097354,-1.309095 1.368248,-1.730269 0.08215,-0.127714 0.626393,-0.726724 1.209423,-1.331136 0.8427,-0.873594 1.16631,-1.277349 1.578173,-1.969062 0.491683,-0.825732 0.901133,-1.309665 1.807127,-2.135849 0.219351,-0.200019 0.643611,-0.672713 0.942801,-1.050433 0.299205,-0.37772 0.821049,-0.93742 1.159665,-1.243779 0.338615,-0.306359 0.982748,-0.904398 1.431385,-1.328976 1.061218,-1.004285 1.643074,-1.331066 2.807343,-1.576655 0.887268,-0.187156 1.789018,-0.448227 3.300453,-0.955531 1.04159,-0.349605 2.49383,-0.593919 3.53032,-0.593919 1.17263,0 2.40961,0.246636 4.26383,0.850144 0.88301,0.2874 1.97041,0.604694 2.41646,0.7051 1.06116,0.238866 1.72754,0.612427 2.5213,1.413371 0.33546,0.338494 0.84501,0.811956 1.13234,1.052137 0.62586,0.52316 1.31505,1.204794 1.66373,1.645507 0.59981,0.758114 0.81902,0.993493 1.39787,1.500991 0.60621,0.531485 0.89211,0.902867 1.60284,2.082044 0.43545,0.722454 0.33468,0.594325 1.4336,1.822841 0.48479,0.541965 1.05319,1.229149 1.26311,1.527077 0.88567,1.256973 1.14607,1.496921 3.16765,2.918834 1.12811,0.793484 1.53188,0.988904 2.40549,1.164232 1.5821,0.317517 3.10882,-0.210165 4.66344,-1.611824 0.84863,-0.765135 1.30899,-1.173631 1.8122,-1.608067 0.526,-0.4541 1.06031,-0.976722 1.32116,-1.292262 0.10162,-0.12292 0.24026,-0.352433 0.93458,-1.547154 0.26311,-0.452726 0.72752,-1.052609 1.23125,-1.590394 0.66216,-0.706916 0.93048,-1.05058 1.65566,-2.120545 0.34454,-0.508356 0.7751,-1.081652 0.9568,-1.273992 0.32872,-0.347961 1.17988,-1.015274 1.78254,-1.397512 0.17381,-0.110238 0.67068,-0.530362 1.10416,-0.933609 1.34338,-1.249698 1.85705,-1.474302 5.2398,-2.291132 2.61507,-0.631462 2.67625,-0.641132 4.05881,-0.641531 1.4515,-4.25e-4 1.84644,0.0587 4.21955,0.631659 0.97251,0.234799 1.89478,0.451077 2.0495,0.480619 0.52095,0.09947 1.42416,0.438393 1.92951,0.724035 0.55059,0.31121 0.73847,0.458074 1.55117,1.212481 0.3009,0.279319 0.82533,0.713785 1.1654,0.965481 1.93445,1.431741 1.92014,1.41663 3.23437,3.415562 0.30804,0.46853 0.88098,1.196214 1.2732,1.617073 0.72346,0.776279 1.1787,1.407664 1.93267,2.680436 0.25126,0.424141 0.82093,0.990644 1.7005,1.691038 0.28362,0.225844 0.87222,0.750274 1.308,1.1654 0.95784,0.912433 1.68383,1.426314 2.38153,1.685739 0.44728,0.166311 0.66114,0.193928 1.48689,0.192002 0.80176,-0.0019 1.05938,-0.0346 1.52707,-0.194018 0.56087,-0.191172 1.22261,-0.55103 1.52642,-0.83007 0.088,-0.08087 0.48156,-0.371284 0.8745,-0.645373 1.52859,-1.066292 2.12599,-1.649323 2.91921,-2.849067 0.16812,-0.254274 0.56076,-0.733572 0.87254,-1.065108 1.35552,-1.441382 1.27153,-1.333911 2.20626,-2.823278 0.3646,-0.580949 0.94235,-1.226514 1.4294,-1.597207 0.14521,-0.110513 0.42852,-0.409671 0.62958,-0.664798 0.52683,-0.66848 1.61268,-1.801225 2.0802,-2.170011 0.22103,-0.174348 0.67501,-0.578678 1.00884,-0.898509 0.98908,-0.947559 1.62623,-1.291012 2.84904,-1.535733 0.76697,-0.153494 1.41154,-0.336537 2.81675,-0.799887 1.0845,-0.357603 2.72289,-0.682349 3.44254,-0.682349 0.448,0 1.30412,0.217799 1.73795,0.442138 0.68601,0.354753 2.09662,1.674916 2.63972,2.470481 0.6694,0.980576 0.66378,1.811817 -0.0201,2.978002 -0.40748,0.694789 -1.59221,2.165259 -2.0673,2.565884 -0.58146,0.490324 -1.36804,0.765992 -2.82809,0.991145 -0.88023,0.13574 -1.44598,0.268732 -1.83056,0.430315 -1.3164,0.553096 -3.09244,2.169441 -4.29181,3.905911 -0.39692,0.574663 -0.99385,1.352267 -1.32651,1.728008 -0.72232,0.815853 -0.90266,1.054056 -1.60637,2.121787 -0.68442,1.03845 -0.94491,1.332194 -1.64499,1.855032 -0.34963,0.261113 -0.84086,0.758361 -1.28181,1.297515 -0.78191,0.956048 -1.20726,1.32081 -1.84253,1.580084 -0.56342,0.229946 -0.91333,0.46043 -1.88906,1.244334 -1.36362,1.095526 -2.30473,1.450413 -4.43464,1.672284 -2.12772,0.221641 -3.93406,0.235113 -5.827,0.04346 -1.63572,-0.16561 -1.86343,-0.202165 -2.89341,-0.464485 -0.60382,-0.153785 -1.53746,-0.606926 -1.85135,-0.898553 -0.56532,-0.525237 -2.64969,-2.021662 -2.81596,-2.021662 -0.0718,0 -0.94388,-0.669469 -1.30872,-1.004646 -0.19248,-0.176824 -0.70665,-0.791677 -1.14262,-1.366341 -0.43596,-0.574663 -1.07057,-1.333904 -1.41025,-1.687201 -0.76192,-0.792494 -1.1331,-1.282857 -1.52143,-2.009932 -0.5387,-1.008613 -1.17357,-1.894485 -1.59681,-2.228121 -0.79919,-0.629991 -1.55936,-1.424013 -2.17587,-2.272737 -0.53339,-0.734306 -1.30174,-1.319171 -2.14378,-1.631807 -0.74199,-0.275494 -2.13855,-0.445885 -3.17705,-0.387622 -2.37197,0.133075 -3.322,0.620788 -4.71654,2.421292 -0.3964,0.5118 -1.06321,1.157643 -1.61953,1.56862 -0.74386,0.549518 -1.07525,0.975 -1.68912,2.168699 -0.45923,0.892988 -0.83097,1.413555 -1.52093,2.12987 -0.34063,0.353639 -1.03189,1.154733 -1.53614,1.780209 -1.27281,1.578804 -1.70812,1.945314 -3.69108,3.107736 -0.35364,0.207305 -0.8419,0.521163 -1.08503,0.697462 -1.69825,1.231457 -2.20597,1.464502 -4.01862,1.844557 -0.66204,0.13881 -2.81925,0.324037 -3.7775,0.32435 -1.20624,3.96e-4 -4.0392,-0.211942 -4.70179,-0.352411 -1.13982,-0.241641 -1.96671,-0.656839 -3.05416,-1.533555 -0.85824,-0.691924 -1.22801,-0.928062 -1.76819,-1.12916 -0.7034,-0.261864 -1.52912,-0.9727 -2.28415,-1.966338 -0.15115,-0.198922 -0.43692,-0.488263 -0.63504,-0.64298 -0.67988,-0.530929 -1.26555,-1.166292 -1.74099,-1.888752 -0.39744,-0.603892 -1.32466,-1.824631 -1.49569,-1.969126 -0.33325,-0.281561 -1.41113,-1.666379 -1.80101,-2.313882 -0.26729,-0.44391 -1.33522,-1.687983 -1.9481,-2.269416 -0.92919,-0.88151 -1.10532,-1.031195 -1.58487,-1.346906 -1.37845,-0.907503 -4.44184,-0.952513 -6.17866,-0.09078 -0.52937,0.262643 -1.00958,0.664315 -2.312995,1.934673 -0.893757,0.871093 -1.264602,1.333243 -2.007812,2.502199 -0.247215,0.388839 -0.807813,1.090624 -1.245769,1.559521 -0.833147,0.892007 -1.02831,1.136678 -1.876178,2.352049 -0.284503,0.407827 -0.679686,0.8738 -0.878192,1.035497 -0.36776,0.299579 -0.874829,0.801414 -2.111152,2.089371 -0.583308,0.607667 -0.800571,0.773836 -1.366336,1.04503 -0.642403,0.307929 -1.250875,0.714566 -1.791089,1.196967 -0.749645,0.66941 -1.638572,1.130491 -2.674042,1.387011 -0.797329,0.197524 -2.652303,0.38572 -4.445779,0.451047 -1.050219,0.03825 -1.675142,0.01245 -3.003456,-0.123999 -2.652485,-0.272478 -3.885527,-0.641949 -4.81596,-1.443063 -0.248814,-0.214233 -1.069348,-0.841655 -1.535141,-1.173843 -1.90221,-1.356614 -2.943485,-2.314674 -3.786341,-3.483748 -0.740341,-1.026881 -1.292171,-1.697395 -1.797904,-2.184593 -0.558035,-0.537582 -0.958533,-1.073621 -1.5687,-2.099593 -0.48857,-0.821518 -1.002929,-1.404856 -1.534429,-1.740229 -0.484129,-0.305481 -1.200385,-1.012745 -1.857103,-1.833808 -0.925252,-1.156792 -1.583083,-1.577755 -2.948482,-1.886814 -0.638918,-0.144619 -0.920153,-0.162504 -2.02776,-0.128953 -2.504605,0.07587 -3.579202,0.585862 -5.003088,2.374418 -0.647537,0.813377 -1.318285,1.50734 -2.025508,2.095607 -0.345844,0.287667 -1.289954,1.557283 -1.289954,1.734689 0,0.02297 -0.195801,0.35832 -0.435116,0.745202 -0.264438,0.427495 -0.79303,1.081347 -1.347538,1.666869 -0.501827,0.529895 -1.090716,1.198537 -1.308636,1.485868 -0.545721,0.719538 -1.082293,1.355603 -1.36938,1.623294 -0.251419,0.234426 -1.600761,1.189742 -1.680465,1.189742 -0.07961,0 -1.348243,0.931264 -2.016666,1.48038 -1.227237,1.008178 -2.063129,1.274084 -4.942493,1.572262 -1.39291,0.144245 -2.963061,0.187656 -3.898478,0.107785 z"
       style="fill:#1e26fe;stroke-width:0.08037247" />
  </g>
</svg>
